<?xml version="1.0" encoding="UTF-8"?>
<svg version="1.1" xmlns="http://www.w3.org/2000/svg" width="512" height="512">
<path d="M0 0 C0.99868909 -0.00297112 1.99737819 -0.00594224 3.02633059 -0.0090034 C6.35908455 -0.01764635 9.69180239 -0.01919493 13.02456665 -0.02069092 C15.42015662 -0.02532233 17.81574585 -0.03034742 20.21133423 -0.03573608 C26.71186048 -0.04883371 33.21237985 -0.05533771 39.71291685 -0.05974674 C43.78023756 -0.06251761 47.84755591 -0.06675656 51.91487503 -0.07125092 C63.19913521 -0.08343966 74.48339352 -0.09373856 85.76766014 -0.09712601 C86.48888342 -0.09734557 87.2101067 -0.09756514 87.95318524 -0.09779136 C88.67603937 -0.09800964 89.39889351 -0.09822791 90.14365232 -0.09845281 C91.60818887 -0.09889626 93.07272542 -0.09934282 94.53726196 -0.09979248 C95.2637076 -0.10001391 95.99015323 -0.10023534 96.73861237 -0.10046348 C108.48858398 -0.10440477 120.23849332 -0.12184006 131.98844092 -0.145152 C144.08217627 -0.16895013 156.17588049 -0.18133175 168.26963961 -0.18249393 C175.04751456 -0.18340615 181.82530843 -0.18904286 188.60316086 -0.20731354 C194.98736375 -0.22388814 201.37141365 -0.2259044 207.75563049 -0.21717453 C210.08628883 -0.21640908 212.41695571 -0.22068117 214.74759293 -0.23063278 C258.07962913 -0.40465983 296.27158717 14.14096113 327.37026978 44.66778564 C335.82133285 53.25263113 342.72223089 62.77794547 348.81997681 73.14044189 C349.16657349 73.72519287 349.51317017 74.30994385 349.87026978 74.91241455 C362.01010239 95.68527045 368.98307225 119.22610484 368.9604187 143.32046509 C368.96487538 144.81849873 368.96487538 144.81849873 368.9694221 146.34679568 C368.97806505 149.67954963 368.97961363 153.01226748 368.98110962 156.34503174 C368.98574103 158.7406217 368.99076612 161.13621093 368.99615479 163.53179932 C369.00925242 170.03232557 369.01575642 176.53284494 369.02016544 183.03338194 C369.02293631 187.10070264 369.02717527 191.168021 369.03166962 195.23534012 C369.04385836 206.5196003 369.05415726 217.80385861 369.05754471 229.08812523 C369.05776427 229.80934851 369.05798384 230.53057179 369.05821006 231.27365033 C369.05842834 231.99650446 369.05864662 232.7193586 369.05887151 233.46411741 C369.05931496 234.92865396 369.05976152 236.3931905 369.06021118 237.85772705 C369.06043261 238.58417268 369.06065404 239.31061832 369.06088218 240.05907746 C369.06482347 251.80904907 369.08225876 263.55895841 369.1055707 275.308906 C369.12936883 287.40264135 369.14175045 299.49634558 369.14291263 311.5901047 C369.14382485 318.36797965 369.14946156 325.14577352 369.16773224 331.92362595 C369.18430684 338.30782883 369.1863231 344.69187874 369.17759323 351.07609558 C369.17682778 353.40675392 369.18109987 355.7374208 369.19105148 358.06805801 C369.36507853 401.40009422 354.81945758 439.59205226 324.29263306 470.69073486 C315.70778757 479.14179794 306.18247323 486.04269597 295.81997681 492.14044189 C295.23522583 492.48703857 294.65047485 492.83363525 294.04800415 493.19073486 C273.27514825 505.33056748 249.73431386 512.30353734 225.63995361 512.28088379 C224.64126452 512.28385491 223.64257542 512.28682603 222.61362302 512.28988719 C219.28086907 512.29853014 215.94815122 512.30007872 212.61538696 512.30157471 C210.219797 512.30620611 207.82420777 512.31123121 205.42861938 512.31661987 C198.92809313 512.3297175 192.42757376 512.3362215 185.92703676 512.34063053 C181.85971606 512.3434014 177.7923977 512.34764035 173.72507858 512.3521347 C162.4408184 512.36432345 151.15656009 512.37462235 139.87229347 512.3780098 C138.79045855 512.37833915 138.79045855 512.37833915 137.68676838 512.37867515 C136.96391424 512.37889343 136.2410601 512.3791117 135.49630129 512.3793366 C134.03176474 512.37978005 132.5672282 512.38022661 131.10269165 512.38067627 C130.37624602 512.3808977 129.64980038 512.38111913 128.90134124 512.38134727 C117.15136963 512.38528855 105.40146029 512.40272385 93.6515127 512.42603579 C81.55777735 512.44983392 69.46407312 512.46221554 57.370314 512.46337771 C50.59243905 512.46428994 43.81464518 512.46992664 37.03679276 512.48819733 C30.65258987 512.50477193 24.26853996 512.50678819 17.88432312 512.49805832 C15.55366478 512.49729287 13.2229979 512.50156496 10.89236069 512.51151657 C-32.43967552 512.68554362 -70.63163355 498.13992266 -101.73031616 467.61309814 C-110.18137924 459.02825266 -117.08227727 449.50293832 -123.18002319 439.14044189 C-123.52661987 438.55569092 -123.87321655 437.97093994 -124.23031616 437.36846924 C-139.15366328 411.83265263 -143.96888288 384.22270078 -143.82699585 354.93341064 C-143.83379502 352.5269607 -143.84271086 350.12051597 -143.85354614 347.71408081 C-143.87607264 341.2594098 -143.86761464 334.80514453 -143.85165071 328.35046768 C-143.84267249 324.30057544 -143.84447118 320.25073325 -143.84910202 316.20083618 C-143.84986819 315.52315191 -143.85063435 314.84546765 -143.85142373 314.14724749 C-143.85302277 312.7694531 -143.85464384 311.39165874 -143.85628669 310.0138644 C-143.87045789 297.17115175 -143.8542884 284.32861914 -143.82728486 271.48593605 C-143.80495393 260.5272569 -143.80883651 249.56884283 -143.83187866 238.61016846 C-143.85879081 225.80542442 -143.86908541 213.00083715 -143.85381734 200.19606876 C-143.85222502 198.82406174 -143.85065316 197.45205468 -143.84910202 196.08004761 C-143.84833064 195.40544076 -143.84755927 194.73083391 -143.84676451 194.03578442 C-143.84249339 189.33985864 -143.8498857 184.64406472 -143.86149979 179.94815063 C-143.87611257 173.59803788 -143.86562045 167.2484178 -143.8370285 160.89835739 C-143.83050645 158.58998806 -143.83215941 156.2815761 -143.84334183 153.97322464 C-144.02984188 111.50758545 -129.37532516 73.193066 -99.75082397 42.66778564 C-73.70742027 16.77431011 -36.88675524 -0.03468097 0 0 Z " fill="#1E88E5" transform="translate(143.18002319335938,-0.14044189453125)"/>
<path d="M0 0 C9.4251367 8.83868375 14.69959999 21.82371453 15.26397038 34.61010551 C15.28689705 36.82775272 15.28869281 39.04569079 15.2724762 41.26339722 C15.27942172 42.49715407 15.28636725 43.73091091 15.29352325 45.00205433 C15.3085313 48.38730995 15.30590863 51.77167452 15.29537022 55.15688777 C15.28832679 58.82300295 15.30441486 62.48903179 15.31736755 66.15512085 C15.33892789 73.32197907 15.33890115 80.48867802 15.33074201 87.65555798 C15.324423 93.48513083 15.32559641 99.31465749 15.33201408 105.14422989 C15.33291574 105.97629677 15.33381739 106.80836365 15.33474637 107.66564468 C15.33659772 109.35639278 15.33846028 111.04714087 15.34033393 112.73788895 C15.35688486 128.56651127 15.34821652 144.39504427 15.33134835 160.2236612 C15.31665617 174.67839918 15.33127779 189.13292919 15.36011852 203.58764039 C15.38957011 218.46024022 15.40046788 233.33274428 15.39093632 248.20537198 C15.38991385 249.89025249 15.38891924 251.57513303 15.3879528 253.26001358 C15.38723822 254.50323725 15.38723822 254.50323725 15.3865092 255.77157655 C15.38435254 261.58714372 15.39410918 267.40261944 15.40872383 273.21816635 C15.42631253 280.31565767 15.4260368 287.41288413 15.40337218 294.51036535 C15.39228845 298.12555182 15.38893215 301.7402728 15.40767288 305.35543823 C15.50353581 325.33547811 15.16229174 341.93067225 0.91796875 357.32421875 C-4.12355667 362.13892708 -9.790039 364.83328596 -16.2421875 367.3359375 C-17.3353125 367.7690625 -18.4284375 368.2021875 -19.5546875 368.6484375 C-33.09592376 371.17307477 -45.30062297 369.08264047 -56.66796875 361.34765625 C-66.82668453 353.4087509 -72.43309144 342.7732557 -75.2421875 330.3359375 C-75.64999962 326.13788422 -75.65214847 321.97122119 -75.62986755 317.75578308 C-75.63794586 315.90687602 -75.63794586 315.90687602 -75.64618737 314.02061731 C-75.65796072 310.62486179 -75.65642328 307.22960115 -75.64902055 303.833866 C-75.64427069 300.16161606 -75.65681481 296.48941762 -75.66703796 292.81718445 C-75.68419648 285.63256026 -75.68507202 278.44802365 -75.67982506 271.2633843 C-75.67577621 265.42038046 -75.6772354 259.57740241 -75.68257332 253.7343998 C-75.68332174 252.901349 -75.68407016 252.0682982 -75.68484126 251.21000344 C-75.68637282 249.51739928 -75.68791117 247.82479513 -75.68945623 246.13219098 C-75.7031709 230.27408988 -75.69775111 214.41603816 -75.68627102 198.5579382 C-75.67634226 184.06935482 -75.68927496 169.58089922 -75.71320521 155.09233554 C-75.73762413 140.19498943 -75.74719707 125.29770276 -75.74055248 110.40033704 C-75.73706614 102.044835 -75.73925347 93.68943117 -75.75680351 85.33394432 C-75.77156058 78.22025488 -75.77211547 71.10673277 -75.7547326 63.99304648 C-75.74624844 60.36805971 -75.74400901 56.74337141 -75.75938416 53.11840057 C-75.77589019 49.17779704 -75.76101935 45.23764881 -75.74339294 41.29704285 C-75.75299795 40.1666646 -75.76260296 39.03628635 -75.77249902 37.87165421 C-75.6541669 24.95000794 -71.86642703 12.49882626 -62.984375 2.89453125 C-44.75871551 -14.44555544 -20.04919802 -14.87971839 0 0 Z " fill="#FCFDFE" transform="translate(286.2421875,76.6640625)"/>
<path d="M0 0 C11.13645744 6.73545192 17.54489214 16.62686393 21.5859375 28.75 C21.6897245 31.17883548 21.73810617 33.57945713 21.73983765 36.00863647 C21.74641103 37.1257833 21.74641103 37.1257833 21.7531172 38.26549876 C21.76650345 40.76863584 21.77268382 43.27173771 21.77880859 45.77490234 C21.78671007 47.56703856 21.79497905 49.3591732 21.80358887 51.15130615 C21.82981663 57.0461678 21.84512315 62.94103655 21.859375 68.8359375 C21.86473548 70.86726511 21.870113 72.89859268 21.87550735 74.9299202 C21.89714243 83.38484011 21.91587582 91.83975812 21.92712975 100.29469872 C21.94334481 112.39652054 21.97645601 124.49802003 22.03353059 136.59972036 C22.07231622 145.11541248 22.09177297 153.63101873 22.09705031 162.14679682 C22.10069364 167.2283962 22.11260529 172.30965186 22.14515305 177.39115524 C22.1753834 182.17979962 22.18149247 186.96789506 22.16976929 191.75661469 C22.16954976 193.50563994 22.17775375 195.25469176 22.19542313 197.00362778 C22.34092504 212.24684272 19.62187257 224.42581289 8.5859375 235.75 C1.58620288 242.26204819 -7.7828088 247.24309191 -17.4140625 247.75 C-18.28417969 247.811875 -19.15429688 247.87375 -20.05078125 247.9375 C-32.41723532 248.45478958 -43.04671514 244.85018907 -52.4140625 236.75 C-61.47194144 228.31405289 -66.80776905 217.46190097 -67.67133141 205.0532732 C-67.67468309 203.77964767 -67.67803478 202.50602213 -67.68148804 201.19380188 C-67.68601915 200.47743362 -67.69055026 199.76106536 -67.69521868 199.02298898 C-67.70778023 196.64587381 -67.7062477 194.26899018 -67.70458984 191.8918457 C-67.71058035 190.17778736 -67.71738709 188.46373171 -67.72494507 186.74967957 C-67.74256131 182.10891803 -67.74729866 177.46823033 -67.74857664 172.82743859 C-67.75000153 169.92266788 -67.75427756 167.01791573 -67.75957108 164.11314964 C-67.77805842 153.96384878 -67.7862435 143.81460034 -67.78466797 133.6652832 C-67.78346763 124.23018083 -67.80455222 114.7953076 -67.8361553 105.36026317 C-67.86237949 97.23936054 -67.87303266 89.11853246 -67.87175715 80.99758786 C-67.87124923 76.15646021 -67.87683775 71.31553624 -67.89811325 66.47445107 C-67.91759891 61.91640929 -67.91755012 57.3587633 -67.90307999 52.80070686 C-67.90100338 51.13715786 -67.9056235 49.4735834 -67.9178009 47.81007767 C-68.02889104 31.56980634 -64.93851874 18.71451801 -53.7265625 6.5625 C-38.99721001 -7.60142629 -17.73186493 -9.18154818 0 0 Z " fill="#FEFEFE" transform="translate(157.4140625,198.25)"/>
<path d="M0 0 C8.94574096 7.52218724 14.75463697 17.26525368 17.1875 28.75 C17.29091131 30.36031081 17.34559608 31.9741294 17.36450195 33.58764648 C17.38375481 35.02580971 17.38375481 35.02580971 17.40339661 36.49302673 C17.41078354 37.52528885 17.41817047 38.55755096 17.42578125 39.62109375 C17.433853 40.69440445 17.44192474 41.76771515 17.45024109 42.87355042 C17.46407083 45.14900098 17.47479794 47.42447219 17.48266602 49.69995117 C17.49414223 52.008933 17.51452406 54.31788921 17.54418945 56.62670898 C17.78124325 75.08379729 17.21008598 91.37143512 3.8125 105.5625 C-6.47333262 115.14907645 -18.60103775 118.16885302 -32.4375 118.02734375 C-43.14952376 117.14707328 -53.71106565 111.33912371 -61.0625 103.625 C-67.77979478 95.58604682 -71.86302654 86.71991704 -72.00537109 76.23217773 C-72.02143402 75.15012558 -72.03749695 74.06807343 -72.05404663 72.95323181 C-72.09888873 68.00423051 -72.13957687 63.05535863 -72.16259766 58.10620117 C-72.17912016 55.50617499 -72.20636052 52.90619353 -72.24462891 50.30639648 C-72.29976833 46.53605851 -72.32133146 42.76678221 -72.3359375 38.99609375 C-72.35860687 37.84878281 -72.38127625 36.70147186 -72.40463257 35.51939392 C-72.37320786 23.34531763 -67.72082177 12.95989973 -59.8125 3.75 C-43.41512409 -11.79334592 -18.09961546 -12.98450674 0 0 Z " fill="#FDFEFE" transform="translate(404.8125,328.25)"/>
</svg>
